<?xml version="1.0" encoding="utf-8"?>
<!DOCTYPE svg PUBLIC "-//W3C//DTD SVG 20000303 Stylable//EN"   "http://www.w3.org/TR/2000/03/WD-SVG-20000303/DTD/svg-20000303-stylable.dtd">
<!-- Generator: Adobe Illustrator 9.0, SVG Export Plug-In  -->
<svg xmlns="http://www.w3.org/2000/svg" width="488.9pt" height="415.882pt" viewBox="0 0 488.9 415.882" xml:space="preserve">
	<g id="Layer_x0020_1" style="fill-rule:nonzero;clip-rule:nonzero;stroke:#000000;stroke-miterlimit:4;">
		<path style="fill-rule:evenodd;clip-rule:evenodd;fill:#FBE0A1;stroke:#FBE0A1;stroke-width:24.75;stroke-linecap:round;stroke-linejoin:round;" d="M429.979,214.774c0,0-129.812-0.811-183.922-39.399c-54.656-38.978-97.968-163-97.968-163
			C103.218,20.368,65.668,43.444,41.453,77.4c-58.789,82.437-25.64,206.882,74.23,278.104c99.869,71.22,228.508,62.152,287.295-20.282c23.956-33.592,33.466-76.118,27.002-120.447z"/>
		<path style="fill:#FF4343;stroke-width:9.75;stroke-linecap:round;stroke-linejoin:round;" d="M93.406,188.489c-0.258-8.357,2.789-17.226-0.31-25.547c-1.794-4.867-5.625-8.606-8.668-12.512c-3.044-3.905-5.773-7.816-8.501-11.726
			c-0.165-0.47-7.068-10.638-7.54-10.475c-2.355,0.817-11.364,12.282-13.225,14.828c-3.564,5.248,5.021,10.821,3.341,15.416c-0.919,2.218-2.633,3.973-4.032,5.727c-3.723,5.092-10.25,13.056-7.958,19.967c2.458,7.7,12.768,12.462,20.337,12.372
			c4.256-0.21,8.659-1.209,12.751-1.89c1.417-0.175,11.818-0.932,12.593-2.045c0.62-0.953,0.752-3.005,1.212-4.114z"/>
		<path style="fill:#FF2A2A;stroke-width:9.75;stroke-linecap:round;stroke-linejoin:round;" d="M115.298,159.993c1.056-3.957,1.793-8.225,1.428-12.32c-0.373-4.728-2.475-8.96-6.912-10.798c-0.476-0.152-5.377-1.197-5.373-0.882c0.661,2.516,2.12,5.81,1.995,8.493
			c0.036,2.838-3.096,4.769-3.537,7.455c-0.414,4.894,3.546,6.266,7.505,7.637c2.216,0.604,2.543,1.546,4.895,0.415z"/>
		<path style="fill:#FF4343;stroke-width:9.75;stroke-linecap:round;stroke-linejoin:round;" d="M329.839,279.159c3.567-4.685,6.69-9.592,10.705-14.052c1.561-2.006,3.345-4.015,5.575-5.352c6.468-3.792,15.612-2.9,21.634,1.115c2.453,1.783,4.684,4.015,7.136,6.021
			c3.122,2.899,7.36,6.691,7.138,11.598c-0.224,4.907-7.583-0.223-9.813,3.346c-1.338,2.229-1.114,5.799-1.562,8.476c-1.113,6.021-2.23,14.272-6.244,19.18c-0.447,0.892-1.339,2.23-2.454,2.23c-1.114,0.222-2.23-0.224-3.346-0.67
			c-2.675-0.892-5.128-2.008-7.136-4.237c-3.122-3.569-5.129-7.807-6.914-12.266c-0.669-2.231-1.337-4.685-2.676-6.469c-1.338-2.007-3.346-4.237-5.353-5.574c-2.9-1.562-4.237-0.894-6.69-3.346z"/>
		<path style="fill:#FF2A2A;stroke-width:9.75;stroke-linecap:round;stroke-linejoin:round;" d="M314.851,357.856c0.67-3.79,2.9-9.812,0-13.381c-1.561-2.007-4.906-3.121-6.913-4.237c-3.567-1.562-3.567-1.562-6.691-2.898c-1.561-0.446-3.122-1.115-4.906-1.784
			c-2.229-0.893-0.223,0.892,0.224,1.561c1.115,2.898,0.669,6.244-0.446,8.92c-1.563,4.685-6.021,12.268-3.123,17.175c1.784,2.898,5.577,3.345,8.699,3.345c0.892,0,2.007-0.446,2.899,0c1.338,0.223,2.006,2.006,3.791,1.561c3.569-0.668,5.798-7.138,6.467-10.26z"/>
		<g style="fill:#D40000;stroke-width:0.75;stroke-linecap:round;stroke-linejoin:round;">
			<path style="fill:none;stroke-width:7.5;" d="M198.573,224.119c-5.436,9.826-12.751,3.555-13.17,2.301c-0.418-0.627,1.463-2.091,1.463-2.091c2.718-2.091,16.098-8.57,18.606-3.554c0.836,1.882-1.882,5.018-2.718,6.271c-5.018,7.107-12.753,11.707-21.741,10.663
				c-2.928-0.21-6.9-0.836-8.781-3.556c-3.763-5.016,8.571-16.096,13.797-15.888c-7.108-9.407-18.396-14.633-24.876-1.463c-1.255,2.718-2.928,5.854-3.136,8.781c-0.419,6.271,8.152,7.526,8.989,10.661c0.628,2.718-2.09,7.735,0,9.826
				c2.299,2.298,7.317,2.508,10.244,2.508c3.764-0.21,6.899-0.627,10.453-2.09c6.48-2.3,12.752-6.48,18.396-10.244c0.837-0.627,1.463-1.463,2.509-1.882c3.344-1.882,7.734-1.046,11.288-2.926c2.301-1.255,4.182-3.137,4.6-5.645
				c1.464-9.617-11.916-26.341-21.951-25.505c-5.017,0.42-9.824,3.762-13.379,6.899c-2.717,2.299-4.39,5.644-4.808,8.989l-0.208,0.836c0.627,0.628,1.254,0.837,1.881,1.254"/>
			<path style="fill:none;stroke-width:9;" d="M178.714,211.158c1.463-19.232,19.023-32.403,32.194-30.104c7.108,1.046,15.26,2.928,20.696,7.526c8.153,6.69,11.08,17.142,11.08,27.178c0,2.926,0,6.063-1.046,8.778c-1.255,4.182-4.599,5.854-7.107,8.99
				c-3.344,4.182-5.227,9.617-7.526,14.425c-3.972,8.153-11.498,25.086-22.368,25.086c-6.481,0-11.916-5.018-16.515-9.407c-1.464-1.253-2.928-3.344-4.808-3.972c-5.018-1.882-10.872-0.837-15.889-1.254c-4.182-0.209-7.944-2.091-11.707-3.971
				c-3.972-2.302-8.572-5.229-10.871-9.409c-4.599-8.152,5.018-9.616,7.944-14.634c0.209-0.417-0.417-1.673-0.627-1.882c-1.673-3.973-4.39-7.316-3.763-11.707c0.836-4.39,4.39-8.361,7.108-11.497c6.271-7.108,14.425-14.635,24.668-13.379
				c1.045,0.208,4.809,2.09,4.809,2.09"/>
			<path style="fill:none;stroke-width:9.75;" d="M192.093,186.699c-3.554-3.344-12.334-15.679-17.561-16.516c-6.69-1.043-10.662,2.928-15.679,6.271c-2.509,1.464-5.227,2.719-7.526,4.182c-2.509,1.464-5.017,3.346-7.525,4.6c-1.255,0.836-3.345,0.418-4.599,0.626
				c-1.882,0.419-12.961,3.346-13.798,5.227c-0.417,1.045,2.299,9.825,2.509,9.825c0.836,4.182,1.254,8.363,2.509,12.334c0.627,2.301,2.09,4.181,2.926,6.271c0.837,1.673,1.463,4.39,3.136,5.646c2.09,1.672,5.435,1.672,7.943,2.717
				c1.463,0.627,6.899,3.555,7.525,3.555"/>
			<path style="fill:none;stroke-width:9.75;" d="M183.521,177.291c6.48-5.853,13.588-10.661,21.115-14.842c9.198-5.226,16.097-7.525,24.667-0.626c4.601,3.345,6.064,8.361,9.618,12.542c5.018,6.062,13.17,9.407,19.442,13.797c2.089,1.464,5.017,3.344,5.644,6.063
				c2.3,8.988-6.48,21.533-11.08,28.431c-5.018,7.525-10.452,14.842-15.888,22.16c-3.135,3.762-5.435,7.733-7.943,12.124c-0.419,0.627-1.045,1.255-1.255,2.092c-1.672,4.598-2.3,9.406-4.39,13.796c-1.463,3.555-3.972,6.691-5.854,10.243
				c-1.462,2.51-2.509,6.063-5.853,6.272c-11.08,0.836-21.533-5.437-29.895-12.544c-2.299-1.88-4.6-3.972-6.9-5.853c-1.463-1.045-2.509-2.718-4.18-3.554c-5.854-2.718-12.335-2.718-18.607-3.764c-3.553-0.627-6.898-1.672-10.452-2.508
				c-3.136-0.628-6.063-0.418-8.362-3.137c-2.509-3.135-2.926-8.361-3.972-12.125c-2.299-8.571-3.345-16.096-1.882-24.668c0.418-1.463,0.418-4.6,1.672-5.644c0.627-0.419,1.255-0.21,1.882-0.419"/>
			<path style="fill:none;stroke-width:9.75;" d="M263.17,204.259c1.675,1.882,3.764,3.346,5.017,5.435c3.556,5.437,9.828,16.726,7.317,23.833c-1.253,3.763-12.961,11.29-15.052,12.752c-5.017,3.346-9.616,7.107-14.215,10.871c-0.418,0.418-4.39,3.137-4.6,3.555
				c-0.208,0.418,0,1.044-0.208,1.254c-1.881,3.136-1.881,7.734-2.927,11.289c-2.509,9.616-6.064,19.023-11.917,27.386c-1.253,1.672-3.762,6.48-5.435,7.526c-3.972,2.299-12.543,0-16.725-0.629c-11.289-1.463-19.233-5.853-28.641-11.079
				c-5.853-3.345-12.961-5.436-17.769-10.243c-2.3-2.718-4.181-10.661-5.227-14.007c-0.627-1.463-2.3-6.897-2.09-6.897c0.836-1.047,1.673-0.419,1.882-1.674"/>
			<path style="fill:none;stroke-width:9;" d="M264.426,243.561c-1.046,8.363-0.21,4.599-3.974,15.472c-1.462,3.552-2.719,7.315-4.181,11.079c-3.345,8.361-7.735,16.933-13.17,24.04c-0.21,0.21-3.553,4.599-3.553,4.599c-2.092,0.837-4.601,0.629-6.69,0.837
				c-2.09,0.21-4.599,1.046-5.645,0.21"/>
			<path style="fill:none;stroke-width:12.75;" d="M128.541,204.259c0,0-5.854-3.762-8.78-3.136c-3.554,0.836-0.836,14.007-2.926,17.142c-2.718,3.765-7.317,11.709-9.826,17.144c0,0.209-2.717,5.227-2.09,6.271c0.836,1.672,2.926,3.345,4.182,5.017
				c3.344,4.392,6.479,8.99,10.034,13.172c3.763,4.6,11.917,15.47,17.561,17.56c3.345,1.045,7.734,0.209,11.08,0.209c2.09,0,5.017,1.046,6.689,0.627"/>
			<path style="fill:none;stroke-width:12.75;" d="M154.463,278.264c-3.973,1.046-8.152,1.046-11.707,3.136c-1.463,0.836-1.672,2.928-2.09,4.6c-0.836,1.881-3.345,8.152-2.927,11.08c0.209,1.253,2.509,2.927,3.555,3.973c6.062,7.734,14.633,10.451,22.16,15.887
				c2.299,1.672,3.763,3.764,5.226,5.854c0.209,0.417,2.718,4.39,2.928,3.972c3.136-3.346,4.39-8.78,4.807-13.169c0.209-1.256-0.208-4.392,0.628-5.436c0-0.21,4.809,3.344,5.645,2.927c1.254-0.628,2.09-2.091,3.136-2.927c1.671-1.465,4.18-2.928,6.271-3.555"/>
			<path style="fill:none;stroke-width:12.75;" d="M264.426,243.561c3.553,1.046,7.524,1.046,10.452,2.928c2.928,2.09,3.764,12.544,3.345,15.889c-0.628,6.062-5.854,10.66-10.872,13.38c-1.044,0.626-2.925,1.253-3.761,1.88c-2.928,2.509-1.466,11.498-2.721,13.798
				c-0.207,0.418-5.434-2.928-6.06-3.137c-0.836-0.209-1.883,1.882-3.138,1.465c-0.836-0.21-1.253-1.256-1.879-1.674l0.416-0.209c-0.626-0.627-1.252-0.836-2.089-1.254"/>
			<path style="fill:none;stroke-width:12.75;" d="M248.12,286.626c7.941,10.87,8.361,6.271,1.88,18.605c-6.271,12.334-14.006,18.606-27.803,17.351c-3.555-0.417-7.944-2.926-11.708-1.88c-5.017,1.254-16.516,7.735-20.697,7.107
				c-2.717-0.419-11.914-7.317-14.215-8.989"/>
			<path style="fill:none;stroke-width:12.75;" d="M123.522,265.304c-3.972,4.599-4.389,4.18-6.688,9.406c-0.419,0.628-1.046,1.464-0.836,2.3c0.209,1.463,11.916,5.436,14.215,6.48c1.464,0.837,1.882,6.063,3.763,7.317c1.881,0.627,4.809,0.417,6.063,0.417"/>
			<path style="fill:none;stroke-width:7.5;" d="M205.473,221.193c0.626,0.837,1.463,1.464,1.88,2.3c0.836,1.255-2.717,13.589-2.717,13.589"/>
			<path style="fill:none;stroke-width:7.5;" d="M186.866,224.329c-2.717,4.181-2.717,7.735,0.836,11.08c0.836,0.628,3.135,2.3,2.927,1.254"/>
			<path style="fill:none;stroke-width:7.5;" d="M224.496,224.957c-0.418,11.08-5.854,22.369-10.871,32.193c-1.254,2.719-2.3,5.645-3.972,8.154c-1.044,1.672-2.09,3.552-3.344,5.017c-0.627,0.418-1.046,1.045-1.672,1.463c-0.209,0.209-0.628,0.209-0.628,0.418
				c0,0.21,0,0.627,0,0.836"/>
			<path style="fill:none;stroke-width:7.5;" d="M158.225,223.701c-0.627,8.99-0.627,26.969,5.645,34.076"/>
			<path style="fill:none;stroke-width:9;" d="M133.349,286.208c-3.345-1.254-6.69-2.51-10.243-3.554c-3.136-0.837-15.679,9.406-17.979,11.079c-4.599,3.554-9.617,5.854-15.261,7.318c-2.509,0.835-5.854,1.253-8.362,2.507c-0.209,0.21,0.627,0.837,1.044,1.046
				c1.045,0.836,2.3,1.882,3.345,2.718c4.599,4.6,9.407,8.362,15.261,11.288c15.47,7.527,35.121,11.08,50.799,2.51c2.092-1.254,4.391-2.51,6.063-3.973c0.208-0.209,0.627,0,0.836-0.209c0.627-0.628,1.044-1.464,1.463-2.09"/>
			<path style="fill:none;stroke-width:9;" d="M198.783,325.302c10.87,29.894,34.702,17.56,57.699,14.424c3.762-0.627,7.525-1.045,11.288-1.045c0.626,0,1.044,0,1.673,0c0,0.209,0.626,0.418,0.626,0.209c0.629-0.837-0.207-6.272-0.207-7.526
				c0-5.645-2.092-15.262-5.646-19.651c-3.554-4.182-9.824-6.897-12.961-8.571"/>
			<path style="fill:none;stroke-width:9;" d="M261.498,308.996c6.271,1.045,9.408-3.345,13.797-7.317c3.556-3.346,11.08-8.571,12.335-13.38c0,0-1.881-1.672-2.091-1.881c-2.928-3.554-5.645-6.48-10.244-7.944c-2.3-0.627-4.598-0.836-6.688-1.254
				c-0.837,0-1.464-0.209-2.3-0.209c0,0-0.628-0.21-0.419,0c1.255,0.627,1.255,0.836,0.419-0.836"/>
			<path style="fill-rule:evenodd;clip-rule:evenodd;fill:#7AC703;stroke-width:1.5;" d="M124.151,324.674c-4.601-0.627-11.29-2.509-16.934-4.6c-7.525-3.136-13.38-6.899-21.324-14.007l-2.509-2.299l5.018-1.255c7.317-1.881,13.17-4.808,21.114-10.661
				c3.554-2.718,7.944-5.854,9.826-6.689l3.136-1.673l3.763,1.255l3.553,1.254l1.255,2.926c1.253,2.928,1.672,3.136,3.553,3.554l1.882,0.419l-0.209,2.509v2.507l3.345,3.765c3.971,4.39,6.898,6.688,13.798,10.87c2.717,1.465,4.807,2.927,4.807,3.137
				c0,0.209-0.835,0.836-1.671,1.463c-10.663,6.69-20.279,8.99-32.403,7.526z"/>
			<path style="fill-rule:evenodd;clip-rule:evenodd;fill:#72C603;stroke-width:1.5;" d="M218.852,343.49c-4.808-0.837-8.78-3.136-12.125-6.691c-2.509-2.508-6.062-8.57-6.062-10.034c0-0.626,7.317-3.972,10.453-4.599c0.835-0.209,3.343,0.21,6.479,0.836
				c4.391,1.046,5.854,1.255,9.617,1.046c5.018-0.209,8.78-1.465,12.335-3.555c2.926-1.882,7.734-7.108,9.615-10.661c0.836-1.465,1.881-3.345,2.301-3.973l0.836-1.254l3.971,2.3c5.227,3.136,8.363,6.479,9.826,10.661c1.462,3.973,2.509,9.408,2.926,15.89
				l0.209,4.179h-2.926c-4.183,0-11.915,1.256-21.533,3.137c-13.169,2.719-20.905,3.555-25.921,2.719z"/>
			<path style="fill-rule:evenodd;clip-rule:evenodd;fill:#7BC803;stroke-width:1.5;" d="M257.943,305.441c-2.089-1.253-3.97-2.3-4.178-2.509c-0.419,0-0.21-0.837,0.417-1.88c0.627-1.046,1.253-2.72,1.672-3.765c0.417-1.881,0.417-2.09-0.836-4.181
				c-1.672-2.927-1.045-3.344,2.089-1.672c4.598,2.51,5.436,1.88,6.063-5.436c0.629-7.735,1.256-8.362,7.736-7.316c5.225,1.046,8.154,2.509,11.705,6.063c1.673,1.881,3.347,3.135,3.555,3.135c1.882-0.418-2.089,4.599-6.271,8.362
				c-2.089,1.881-5.436,4.81-7.316,6.689c-6.271,5.854-8.779,6.271-14.635,2.509z"/>
			<path style="fill:#FF2A2A;" d="M207.353,270.321c2.3-2.719,4.182-6.063,7.317-12.753c6.481-13.379,8.362-18.397,9.826-24.668c0.837-3.972,1.254-9.826,0.628-12.125c-1.673-7.735-8.572-16.307-15.68-19.861c-5.854-2.717-11.08-1.881-18.188,3.345
				c-3.972,2.927-6.481,6.272-7.108,8.78c-0.209,0.418-0.418,0.836-0.418,0.836c-0.209,0-1.045-0.627-2.09-1.463l-1.673-1.672l0.209-1.674c1.881-13.588,14.006-26.131,26.55-26.967c3.763-0.418,12.961,1.672,17.978,3.762c9.826,4.182,15.47,13.171,16.515,26.341
				c0.418,4.808,0,9.826-0.837,12.333c-0.626,1.466-1.462,2.509-3.97,5.229c-3.764,3.971-5.227,6.271-8.99,14.215c-4.181,9.198-6.69,13.588-9.199,17.562c-3.344,5.225-7.734,8.988-11.288,10.034c-0.627,0.208-0.627,0,0.417-1.255z"/>
			<path style="fill:#FF2A2A;" d="M157.181,253.804c-7.734-4.18-12.125-8.779-12.125-12.752c0-1.672,0.836-2.718,4.391-5.644c3.136-2.718,3.553-2.928,4.39-4.391c0.418-1.044,0.418-1.044-1.882-5.645c-2.299-5.017-2.717-6.898-2.09-9.615
				c1.463-5.018,12.125-16.516,18.606-20.07c4.389-2.509,10.034-3.345,13.17-1.882l1.673,0.628l-1.463,2.299c-1.465,2.508-3.136,6.898-3.764,10.034c-0.208,1.254-0.417,2.299-0.627,2.509c0,0-0.836-0.21-1.882-0.627c-2.3-0.836-5.435-0.836-7.525-0.209
				c-3.972,1.462-7.317,5.853-10.034,13.17c-0.836,2.299-0.836,2.508-0.836,10.034c0,10.453,1.254,18.397,3.345,22.579c0.418,0.627,0.418,1.253,0.418,1.253c-0.21,0-1.882-0.836-3.763-1.673z"/>
			<path style="fill:#FF2A2A;" d="M204.427,287.462c-3.762-0.626-5.436-1.254-8.989-2.926c-5.227-2.719-12.125-7.736-20.696-15.471c-1.465-1.254-2.928-2.509-3.554-2.718c-2.09-1.044-6.899-2.3-12.962-3.136c-3.344-0.418-8.988-1.464-12.333-2.3
				c-3.345-0.626-6.898-1.463-7.944-1.673c-2.299-0.627-3.762-1.88-4.808-3.972c-0.627-1.464-2.509-9.407-3.972-16.306c-1.044-4.6-1.254-12.125-0.627-16.516c0.627-4.182,1.254-6.062,1.672-5.854c0.417,0.209,1.882,2.927,3.345,6.272
				c1.464,3.137,2.3,3.972,6.69,5.017c2.927,0.836,9.407,3.763,9.407,4.182c0,0-0.627,0.627-1.254,1.046c-4.181,2.927-5.854,5.225-5.854,8.151c0,5.228,5.435,10.663,15.051,15.471c5.436,2.508,6.481,2.718,15.471,3.137c5.853,0.208,8.152,0.208,9.198,0.626
				c0.836,0.418,2.718,1.883,5.436,4.391c4.599,4.391,6.898,6.063,9.616,7.316c6.689,3.556,12.334,2.509,18.188-3.346c4.39-4.388,7.735-10.243,14.842-25.086c3.135-6.897,4.391-8.779,7.944-12.543c4.391-4.39,5.226-6.479,5.646-12.962
				c0.418-8.988-1.673-17.978-5.646-24.04c-5.018-7.527-11.497-11.29-23.623-13.799c-5.018-1.043-8.571-1.043-12.125-0.208c-2.717,0.835-7.316,2.717-9.198,3.971c-1.046,0.836-1.046,1.045-5.018-3.764l-2.926-3.136l1.045-0.836
				c9.408-7.944,20.904-15.052,27.386-16.932c2.09-0.627,2.926-0.836,5.435-0.627c2.509,0.208,3.136,0.208,5.227,1.254c4.39,2.299,5.853,3.763,9.826,9.617c4.808,7.525,6.688,9.198,16.307,15.052c8.987,5.436,11.914,7.734,12.331,10.244
				c0.63,3.762-0.836,9.824-4.18,15.888c-3.553,6.062-12.333,19.232-21.323,30.939c-3.973,5.437-5.225,7.107-8.361,12.752c-2.509,3.764-2.719,4.599-3.972,9.198c-1.882,6.69-2.509,8.362-5.855,14.007c-1.672,2.718-3.344,5.853-3.972,6.899
				c-1.463,2.926-2.508,3.344-5.645,3.344c-1.463,0-3.762-0.209-5.226-0.627z"/>
			<path style="fill:#FF2A2A;" d="M147.564,228.091c-1.672-0.836-4.39-1.882-6.062-2.299c-3.136-0.836-4.6-1.674-5.227-2.927c-4.599-8.99-5.226-11.079-6.481-17.98c-0.417-2.09-1.254-5.643-1.881-7.733c-1.463-5.646-1.463-5.646,0.627-6.689
				c4.181-1.673,10.871-3.555,13.17-3.555c1.672,0,2.927-0.626,7.107-3.346c1.881-1.253,5.018-2.926,6.899-3.972c1.881-1.045,4.599-2.717,6.48-3.972c4.601-2.926,6.9-3.972,9.826-4.181c4.39-0.209,5.854,1.045,17.561,14.216c0.626,0.837,0.626,0.837-2.091,3.554
				c-1.671,1.672-2.927,2.926-3.136,2.926c-0.208,0-1.044-0.208-1.881-0.628c-1.463-0.626-2.3-0.836-4.599-0.836c-8.363,0-15.889,4.808-25.296,16.098c-4.391,5.436-6.063,9.407-5.227,13.38c0.209,1.045,1.045,3.553,2.091,5.645c1.044,2.09,1.881,3.762,1.881,3.762
				c0,0.42-0.837,0-3.763-1.463z"/>
			<path d="M150.49,276.174c-0.626,0-3.972-0.21-7.107-0.21l-5.435,0.21l-1.881-1.046c-3.763-2.091-12.961-12.334-22.159-24.668c-1.882-2.509-4.182-5.644-5.228-6.899c-1.88-1.881-2.09-2.3-1.88-3.136c0.417-2.3,5.853-12.752,11.08-20.695
				c0.835-1.465,1.045-2.301,1.463-4.808c0-1.674,0.208-4.809,0.208-6.9c0-5.853,0.419-6.271,5.018-3.973l2.718,1.465l0.417,1.881c0.209,1.255,0.836,3.137,1.046,4.392l0.627,2.298l-1.046,1.046c-0.836,0.836-1.253,1.463-1.672,3.971
				c-1.254,7.527-1.254,14.216,0.419,21.324c1.672,7.734,2.926,13.589,3.553,15.052c1.255,3.345,3.555,5.228,6.69,6.064c2.09,0.417,9.617,2.089,11.289,2.507c1.254,0.42,1.254,0.42,1.463,2.3c0.209,1.464,1.673,7.316,2.717,9.826c0,0.419,0,0.419-2.3,0z"/>
			<path d="M134.395,288.507c-0.418-0.627-0.837-1.671-0.837-2.299c-0.209-0.627-0.627-1.672-1.254-2.51c-0.836-1.463-1.253-1.671-8.781-4.598c-3.972-1.673-5.643-2.301-5.643-2.927c0-1.254,4.807-8.362,5.643-8.154c0.209,0.21,1.255,1.256,2.509,2.719
				c5.645,6.062,9.199,8.362,13.379,8.781l2.509,0.209l-0.836,0.835c-0.627,0.628-1.254,1.672-1.463,2.508c-0.209,0.627-0.627,2.51-1.254,3.765c-0.836,2.508-0.836,2.508-2.091,2.508c-1.045,0.209-1.254,0-1.881-0.837z"/>
			<path style="fill:#B00000;" d="M169.515,321.121c-3.345-4.391-4.809-5.646-15.052-11.707c-5.645-3.346-7.735-4.809-11.498-8.78l-3.554-3.763v-1.673c0.209-1.046,0.836-3.345,1.463-5.226c0.628-1.674,1.464-3.973,1.673-4.809c0.209-0.836,0.418-1.673,0.627-1.882
				c0.417-0.836,2.927-1.672,6.272-2.3c4.599-1.045,4.599-1.045,5.017,0.628c0.836,2.509,1.882,4.39,3.762,6.062c2.509,2.509,3.972,3.345,12.335,7.526c10.871,5.436,17.561,8.99,17.561,9.198c0,0-0.418,0.419-0.836,0.628c-0.628,0.417-1.881,1.463-3.136,2.507
				l-1.882,1.883l-2.3-1.464c-1.882-1.255-2.089-1.255-3.345-1.045c-1.463,0.418-1.673,1.045-1.673,3.972c0,1.046-0.208,3.346-0.417,4.809c-0.626,2.926-2.299,8.153-2.718,8.153c-0.208,0-1.254-1.256-2.299-2.718z"/>
			<path d="M186.449,324.465c-1.463-1.047-4.182-2.719-5.854-3.973l-3.136-2.298l0.419-2.51c0.208-1.254,0.417-2.927,0.417-3.556c0-0.626,0.209-1.253,0.209-1.253c0.209,0,0.836,0.418,1.672,0.836c2.09,1.463,3.136,1.254,5.853-1.463
				c1.463-1.254,3.345-2.719,4.6-3.345l2.091-1.046l2.09,0.836c3.345,1.046,4.39,1.255,10.871,2.301c10.035,1.672,13.588,1.672,16.307-0.209c0.417-0.42,1.881-2.092,3.136-3.972l2.299-3.346l3.554-0.417c8.153-0.837,8.362-0.837,9.198-1.673
				c1.045-1.047,4.599-5.435,6.48-8.154l1.254-2.09l2.51,3.136c1.253,1.674,2.508,3.345,2.508,3.554c0,1.046-5.018,10.452-7.315,13.798c-3.137,4.809-6.899,8.152-11.289,9.825c-2.718,1.045-4.6,1.463-8.572,1.463c-3.136,0-4.389-0.208-7.734-1.044
				c-6.272-1.672-7.108-1.465-16.935,2.716c-5.853,2.51-8.78,3.556-10.452,3.556c-1.045,0-2.09-0.419-4.181-1.673z"/>
			<path d="M257.733,288.089c-2.298-1.463-2.924-1.672-4.387-0.836c-0.628,0.209-1.256,0.627-1.256,0.627c-0.21,0-0.419-0.627-1.046-1.044l-0.836-1.255l2.51-5.018c1.464-2.718,3.343-7.108,4.389-9.407c3.345-8.362,7.318-20.068,7.737-22.788
				c0.417-1.462,0.626-2.508,0.626-2.716c0.417-0.21,6.688,1.254,7.735,1.88c1.253,0.836,2.298,2.928,2.925,6.691c0.838,4.598,0.628,9.197-0.627,11.497c-1.881,3.763-5.017,6.48-10.242,9.199c-1.463,0.837-3.138,1.673-3.347,2.299
				c-1.046,1.464-1.672,4.181-2.089,7.944c0,2.299-0.21,3.762-0.42,3.762c-0.207,0-1.043-0.418-1.673-0.836z"/>
			<path style="fill:#AA0000;" d="M229.513,298.75c0-0.208,0.419-1.044,1.046-2.299c3.972-6.479,8.153-17.769,10.034-27.176c0.418-2.3,1.045-5.019,1.463-5.854c0.21-0.837,0.628-1.463,0.628-1.673c0-0.207,0.835-1.044,1.881-1.672
				c1.047-0.837,3.136-2.509,4.809-3.972c3.554-2.719,10.87-8.362,12.332-9.408l1.255-0.626l-0.417,1.881c-0.209,1.673-4.39,14.216-7.315,21.741c-2.301,5.436-6.48,14.006-8.99,17.77c-2.719,4.181-7.107,10.244-7.734,10.451c-0.419,0-2.3,0.419-4.599,0.419
				c-2.092,0.21-3.972,0.418-4.182,0.629c-0.209,0-0.209,0-0.209-0.211z"/>
			<path d="M213.207,307.741c-16.098-2.3-20.069-3.553-31.149-9.408c-3.136-1.462-8.781-4.388-12.543-6.271c-5.645-2.926-7.317-3.763-8.989-5.435c-2.718-2.299-3.345-3.555-5.854-12.334c-1.253-3.554-2.299-6.898-2.718-7.316c-0.208-0.628-0.417-1.046-0.417-1.046
				c1.672-0.836,1.882-0.836,4.809-0.626c9.825,1.253,13.17,2.298,16.096,5.017c2.928,2.717,10.036,8.78,12.962,10.871c5.435,3.972,11.499,6.897,16.724,8.361c2.926,0.627,8.572,1.255,10.662,0.836c1.672-0.417,3.136-1.882,5.018-5.017
				c0.836-1.674,2.508-4.809,3.972-6.899c2.718-4.6,3.763-7.107,5.645-14.005c1.045-3.556,1.673-5.436,2.509-6.691c0.626-1.045,2.09-3.343,3.343-5.436c1.255-1.881,4.391-6.48,6.899-9.825c11.497-15.261,18.815-26.341,21.74-32.822
				c1.465-2.508,1.675-2.926,2.092-2.717c1.672,0.837,5.436,6.48,7.735,11.498c2.926,6.481,3.972,11.916,2.3,15.052c-0.627,1.464-5.436,5.436-9.826,8.571c-7.944,5.645-12.125,8.78-15.469,11.706c-2.092,1.464-4.6,3.556-5.855,4.392
				c-1.881,1.463-2.299,1.881-2.926,3.553c-0.417,1.255-1.254,4.392-1.882,7.317c-1.671,8.571-4.18,15.889-7.735,22.787c-2.508,5.018-8.988,14.634-10.243,15.261c-1.046,0.627-5.019,0.836-6.899,0.627z"/>
			<path d="M199.828,270.948c-2.926-1.255-5.854-3.554-10.453-7.944c-5.645-5.227-5.645-5.227-15.469-5.436c-4.182-0.208-8.154-0.418-8.781-0.627c-2.928-0.627-5.227-8.572-6.063-20.068c-0.208-3.137-0.208-5.646,0-5.646c0-0.209,0.419,0,0.836,0.418
				c0.418,0.419,1.882,1.465,3.345,2.3c1.673,1.255,2.509,2.092,2.719,2.509c0,0.419,0,2.299-0.419,3.972c-0.627,3.972-0.417,5.228,1.463,6.69c1.882,1.672,6.481,2.718,11.499,2.3c7.944-0.628,14.426-3.345,25.086-10.453c5.854-4.181,6.69-4.391,9.408-4.81
				c4.39-0.836,6.689-1.462,8.153-2.508c0.836-0.418,1.672-0.836,1.672-0.627c0.208,1.046-2.718,10.453-5.228,15.679c-2.926,6.481-8.362,17.561-9.824,19.86c-2.091,2.927-4.182,5.019-5.228,5.019c-0.418,0-1.463-0.21-2.717-0.628z"/>
			<path style="fill:#FF2A2A;" d="M188.539,234.782c-1.464-1.255-2.717-3.555-2.717-5.017c0-0.628,0.208-1.047,0.208-0.837c3.136,1.463,5.645,1.881,7.944,1.046c1.464-0.629,3.972-2.719,4.809-4.391c0.626-1.047,0.626-1.047-0.209-1.465
				c-0.836-0.418-0.836-0.418-1.254,0.21c-0.626,1.045-2.718,3.136-3.553,3.554c-1.465,0.836-3.765,0.627-5.437-0.209c-0.627-0.418-1.254-0.836-1.254-1.045c-0.418-1.255,3.346-3.555,8.781-5.645c3.135-1.047,7.108-1.254,8.151-0.209
				c0.837,0.836,0.628,1.672-1.043,4.391c-2.3,3.344-6.481,7.525-9.617,9.197c-1.464,0.628-2.926,1.255-3.136,1.255c-0.419,0-1.045-0.418-1.672-0.836z"/>
			<path style="fill:#FF2A2A;" d="M172.023,247.326c-2.299-0.419-3.972-1.465-4.599-2.509c-0.418-0.837-0.418-1.465,0.209-4.392c0.836-5.017,0.627-5.435-4.391-8.78c-1.463-0.836-2.926-2.3-3.345-2.927c-1.254-1.673-0.836-4.809,0.836-8.361
				c3.346-7.735,6.064-10.454,10.872-10.454c2.09,0,2.717,0.211,5.017,1.465c2.509,1.254,6.481,4.599,6.69,5.644c0.208,0.628-0.209,0.837-2.299,2.09c-1.882,0.836-3.346,2.092-5.437,3.973c-7.315,7.317-6.479,12.963,2.091,15.052
				c2.717,0.837,8.154,0.837,11.289,0.209c3.554-0.836,7.316-3.135,10.662-6.479c2.3-2.09,5.854-6.481,6.272-7.736c0.208-0.418,0.208-0.626,0.418-0.418c0.418,0.628,0,3.345-1.255,8.572l-1.045,4.181l-3.136,2.091c-6.689,4.181-12.333,7.108-16.723,8.152
				c-3.135,0.629-9.617,1.046-12.125,0.629z"/>
			<path d="M179.758,236.663c-3.972-0.626-6.899-2.3-7.317-4.39c-0.208-1.464,1.465-4.809,4.391-7.525c3.553-3.764,7.525-5.854,9.825-5.437c0.628,0.209,1.254,0.209,1.254,0c0,0-0.626-0.836-1.254-1.882c-1.253-1.463-1.253-1.671-1.044-2.717
				c1.044-3.763,3.553-6.69,8.361-10.033c5.227-3.346,9.408-4.182,13.379-2.51c7.944,3.136,16.098,14.424,16.098,21.74c0,4.6-2.926,7.108-9.197,7.945c-2.928,0.418-4.809,1.045-6.271,1.672c-0.836,0.418-1.465,0.836-1.465,0.836s0.209-1.253,0.628-2.926
				c0.417-1.883,1.044-4.392,1.044-5.645l0.209-2.51l-1.463-2.09c-1.883-2.718-3.555-3.554-6.691-3.136c-4.389,0.418-11.706,3.554-14.423,6.062c-1.255,1.255-1.464,1.674-1.673,2.927c-0.209,4.81,0,5.854,2.09,8.154c0.627,0.627,1.045,1.254,0.836,1.254
				c-0.209,0.419-5.435,0.628-7.317,0.209z"/>
		</g>
		<g style="stroke:none;">
			<g>
				<g>
					<path d="M163.758,33.298h-0.001c-4.351,0.175-8.956,1.083-13.689,2.699c-4.759,1.685-8.819,3.835-12.078,6.395c-8.991,7.377-14.751,14.238-17.137,20.406c-2.429,6.286-2.615,11.502-0.554,15.506c2.15,4.056,5.48,6.387,9.902,6.939
						c5.267,0.302,9.662-0.669,13.129-2.882c3.434-2.19,5.819-4.498,7.089-6.859c0.81-1.595,3.243-6.383,0.417-8.151l-0.224-0.14l-5.97-0.25l3.071,1.991c0.399,0.259,0.817,0.72,0.511,2.003c-0.311,1.344-0.941,2.654-1.876,3.902
						c-3.635,4.666-8.681,6.914-15.416,6.857c-3.743-0.202-5.837-1.85-6.544-5.184c-0.799-3.458,0.205-7.881,2.981-13.161c2.83-5.439,7.688-11.053,14.441-16.69c6.963-5.359,13.206-8.423,18.525-9.082c4.979-0.674,8.08,0.148,9.229,2.443
						c1.609,4.216,0.679,9.712-2.804,16.244c-3.557,6.772-7.756,13.571-12.485,20.215c-4.752,6.755-7.98,12.285-9.596,16.44l-0.043,0.11l-0.016,0.118c-0.091,0.677,0.007,2.299,2.888,2.744l0.144,0.022l4.801-0.659l2.558-2.271c0,0-1.01-1.009-1.236-1.235
						c0.091-0.362,0.469-1.363,2.067-3.81c1.974-3.326,5.869-8.184,11.601-14.475c5.744-6.309,12.225-12.303,19.26-17.818c6.033-4.692,11.694-7.594,16.923-8.864c-3.806,5.208-7.626,10.733-11.379,16.588c-4.292,6.637-7.543,12.968-9.663,18.814
						c-1.074,2.932-1.61,5.582-1.61,7.935c0,2.49,0.601,4.647,1.804,6.451l0.286,0.429l6.071,0.191l0.167-0.054c2.698-0.882,5.081-2.015,7.08-3.366c1.841-1.211,2.564-2.084,2.486-3.006c-0.028-0.332-0.198-0.941-1.022-1.301l-0.383-0.168l-5.086,2.034
						c0,0-4.35,1.631-4.618,1.732c-0.312,0.015-0.54-0.035-0.671-0.154c-0.217-0.197-0.336-0.671-0.336-1.334c0-1.004,0.271-2.398,0.805-4.143c1.45-4.738,4.402-10.721,8.775-17.784c4.383-7.081,9.856-14.064,16.267-20.756l2.842-3.184
						c1.16-1.417,1.709-2.563,1.709-3.536l-0.011-0.296l-0.022-0.061c-0.867-3.533-3.414-5.008-7.169-4.153l-0.066,0.015l-0.063,0.023c-6.594,2.467-13.098,5.834-19.333,10.01l-18.491,13.953c-0.919,0.759-1.797,1.513-2.633,2.262
						c0.873-1.528,2.311-4.042,2.311-4.042c3.491-7.328,5.171-12.608,5.171-16.209c-0.065-3.8-0.954-6.265-2.717-7.553c-2.278-2.042-5.791-3.018-10.363-2.838z"/>
					<path style="fill:none;stroke:#FFFFFF;stroke-width:2;" d="M163.758,33.298h-0.001c-4.351,0.175-8.956,1.083-13.689,2.699c-4.759,1.685-8.819,3.835-12.078,6.395c-8.991,7.377-14.751,14.238-17.137,20.406c-2.429,6.286-2.615,11.502-0.554,15.506
						c2.15,4.056,5.48,6.387,9.902,6.939c5.267,0.302,9.662-0.669,13.129-2.882c3.434-2.19,5.819-4.498,7.089-6.859c0.81-1.595,3.243-6.383,0.417-8.151l-0.224-0.14l-5.97-0.25l3.071,1.991c0.399,0.259,0.817,0.72,0.511,2.003c-0.311,1.344-0.941,2.654-1.876,3.902
						c-3.635,4.666-8.681,6.914-15.416,6.857c-3.743-0.202-5.837-1.85-6.544-5.184c-0.799-3.458,0.205-7.881,2.981-13.161c2.83-5.439,7.688-11.053,14.441-16.69c6.963-5.359,13.206-8.423,18.525-9.082c4.979-0.674,8.08,0.148,9.229,2.443
						c1.609,4.216,0.679,9.712-2.804,16.244c-3.557,6.772-7.756,13.571-12.485,20.215c-4.752,6.755-7.98,12.285-9.596,16.44l-0.043,0.11l-0.016,0.118c-0.091,0.677,0.007,2.299,2.888,2.744l0.144,0.022l4.801-0.659l2.558-2.271c0,0-1.01-1.009-1.236-1.235
						c0.091-0.362,0.469-1.363,2.067-3.81c1.974-3.326,5.869-8.184,11.601-14.475c5.744-6.309,12.225-12.303,19.26-17.818c6.033-4.692,11.694-7.594,16.923-8.864c-3.806,5.208-7.626,10.733-11.379,16.588c-4.292,6.637-7.543,12.968-9.663,18.814
						c-1.074,2.932-1.61,5.582-1.61,7.935c0,2.49,0.601,4.647,1.804,6.451l0.286,0.429l6.071,0.191l0.167-0.054c2.698-0.882,5.081-2.015,7.08-3.366c1.841-1.211,2.564-2.084,2.486-3.006c-0.028-0.332-0.198-0.941-1.022-1.301l-0.383-0.168l-5.086,2.034
						c0,0-4.35,1.631-4.618,1.732c-0.312,0.015-0.54-0.035-0.671-0.154c-0.217-0.197-0.336-0.671-0.336-1.334c0-1.004,0.271-2.398,0.805-4.143c1.45-4.738,4.402-10.721,8.775-17.784c4.383-7.081,9.856-14.064,16.267-20.756l2.842-3.184
						c1.16-1.417,1.709-2.563,1.709-3.536l-0.011-0.296l-0.022-0.061c-0.867-3.533-3.414-5.008-7.169-4.153l-0.066,0.015l-0.063,0.023c-6.594,2.467-13.098,5.834-19.333,10.01l-18.491,13.953c-0.919,0.759-1.797,1.513-2.633,2.262
						c0.873-1.528,2.311-4.042,2.311-4.042c3.491-7.328,5.171-12.608,5.171-16.209c-0.065-3.8-0.954-6.265-2.717-7.553c-2.278-2.042-5.791-3.018-10.363-2.838z"/>
				</g>
				<g>
					<path d="M219.327,59.795c-5.016,0.418-9.889,3.139-14.484,8.087c-4.544,4.894-7.27,9.422-8.1,13.458c-0.632,2.891-0.037,6.768,6.403,8.755c3.654,0.761,7.935-0.554,12.814-3.886l7.128-4.867l5.626-7.12l0.047-0.097c0.465-0.955,1.168-2.396,0.227-3.128
						c-0.941-0.731-2.161,0.303-2.968,0.988l-0.083,0.071l-0.066,0.087c-2.104,2.769-5.353,5.958-9.657,9.479c-4.101,3.41-7.772,4.97-10.923,4.654c-1.642-0.555-2.387-1.462-2.387-2.94c0.044-1.488,0.41-2.795,0.984-3.951c1.539,0.192,3.621-0.178,6.559-1.259
						c3.327-1.226,6.521-3.029,9.494-5.36c3.119-2.384,4.802-5.101,4.992-8.067c-0.096-2.11-1.12-4.562-5.445-4.903l-0.081-0.006l-0.081,0.007z M213.29,67.984c2.471-2.106,4.732-3.309,6.666-3.536c0.5,0.034,0.67,0.136,0.684,0.147
						c0.001,0.008,0.003,0.012,0.003,0.038c0,0.056-0.01,0.155-0.056,0.311c-1.348,3.146-3.963,5.887-7.735,8.043c-3.15,1.73-5.132,2.315-6.427,2.421c0.517-0.753,0.988-1.439,1.038-1.512c0.122-0.124,5.829-5.913,5.829-5.913z"/>
					<path style="fill:none;stroke:#FFFFFF;stroke-width:2;" d="M219.327,59.795c-5.016,0.418-9.889,3.139-14.484,8.087c-4.544,4.894-7.27,9.422-8.1,13.458c-0.632,2.891-0.037,6.768,6.403,8.755c3.654,0.761,7.935-0.554,12.814-3.886l7.128-4.867l5.626-7.12
						l0.047-0.097c0.465-0.955,1.168-2.396,0.227-3.128c-0.941-0.731-2.161,0.303-2.968,0.988l-0.083,0.071l-0.066,0.087c-2.104,2.769-5.353,5.958-9.657,9.479c-4.101,3.41-7.772,4.97-10.923,4.654c-1.642-0.555-2.387-1.462-2.387-2.94
						c0.044-1.488,0.41-2.795,0.984-3.951c1.539,0.192,3.621-0.178,6.559-1.259c3.327-1.226,6.521-3.029,9.494-5.36c3.119-2.384,4.802-5.101,4.992-8.067c-0.096-2.11-1.12-4.562-5.445-4.903l-0.081-0.006l-0.081,0.007z M213.29,67.984
						c2.471-2.106,4.732-3.309,6.666-3.536c0.5,0.034,0.67,0.136,0.684,0.147c0.001,0.008,0.003,0.012,0.003,0.038c0,0.056-0.01,0.155-0.056,0.311c-1.348,3.146-3.963,5.887-7.735,8.043c-3.15,1.73-5.132,2.315-6.427,2.421c0.517-0.753,0.988-1.439,1.038-1.512
						c0.122-0.124,5.829-5.913,5.829-5.913z"/>
				</g>
				<g>
					<path d="M240.376,50.764c-1.359,0.648-2.709,1.894-4.128,3.809l0.007-0.01c0,0-2.466,3.242-2.952,3.881c-0.795,0.013-4.638,0.078-4.638,0.078h-0.677l-1.622,0.609l-0.078,0.046c-0.851,0.51-1.342,1.342-1.42,2.405l-0.007,0.095l0.011,0.095
						c0.166,1.421,1.1,2.337,2.629,2.581c0.452,0.072,0.869,0.091,1.284,0.108c-1.066,2.07-3.554,6.899-3.554,6.899c-1.676,3.003-2.86,6.085-3.503,9.132c-0.108,0.633-0.162,1.243-0.162,1.83c0,1.868,0.547,3.5,1.633,4.884c1.536,1.87,3.919,2.682,7.099,2.429
						c3.604-0.538,7.492-2.077,11.626-4.581c4.115-2.492,7.732-5.58,10.75-9.178c1.299-1.917,1.987-3.085,1.14-3.854c-0.875-0.794-2.025,0.156-3.14,1.073l-0.053,0.043l-0.046,0.05c-3.285,3.564-6.58,6.41-9.792,8.459c-3.125,2.027-6.792,3.415-10.905,4.127
						c-0.747,0.081-1.545-0.125-2.381-0.637c-0.672-0.424-0.99-1.031-0.99-1.905l0.013-0.32c0.529-2.774,2.122-6.366,4.721-10.57c2.493-4.03,4.308-6.586,5.443-7.699c0.632-0.09,7.423-1.06,7.423-1.06l10.845-1.537c3.743-0.59,4.821-1.08,4.821-2.184
						c0-0.257-0.088-0.742-0.681-1.108l-0.259-0.16l-4.915,0.181l-7.915,0.085c0,0-1.976-0.056-3.716-0.106c1.633-1.841,2.603-3.375,2.906-4.637l0.122-0.509l-1.987-2.222l-2.604-0.792l-0.351,0.167z"/>
					<path style="fill:none;stroke:#FFFFFF;stroke-width:2;" d="M240.376,50.764c-1.359,0.648-2.709,1.894-4.128,3.809l0.007-0.01c0,0-2.466,3.242-2.952,3.881c-0.795,0.013-4.638,0.078-4.638,0.078h-0.677l-1.622,0.609l-0.078,0.046
						c-0.851,0.51-1.342,1.342-1.42,2.405l-0.007,0.095l0.011,0.095c0.166,1.421,1.1,2.337,2.629,2.581c0.452,0.072,0.869,0.091,1.284,0.108c-1.066,2.07-3.554,6.899-3.554,6.899c-1.676,3.003-2.86,6.085-3.503,9.132c-0.108,0.633-0.162,1.243-0.162,1.83
						c0,1.868,0.547,3.5,1.633,4.884c1.536,1.87,3.919,2.682,7.099,2.429c3.604-0.538,7.492-2.077,11.626-4.581c4.115-2.492,7.732-5.58,10.75-9.178c1.299-1.917,1.987-3.085,1.14-3.854c-0.875-0.794-2.025,0.156-3.14,1.073l-0.053,0.043l-0.046,0.05
						c-3.285,3.564-6.58,6.41-9.792,8.459c-3.125,2.027-6.792,3.415-10.905,4.127c-0.747,0.081-1.545-0.125-2.381-0.637c-0.672-0.424-0.99-1.031-0.99-1.905l0.013-0.32c0.529-2.774,2.122-6.366,4.721-10.57c2.493-4.03,4.308-6.586,5.443-7.699
						c0.632-0.09,7.423-1.06,7.423-1.06l10.845-1.537c3.743-0.59,4.821-1.08,4.821-2.184c0-0.257-0.088-0.742-0.681-1.108l-0.259-0.16l-4.915,0.181l-7.915,0.085c0,0-1.976-0.056-3.716-0.106c1.633-1.841,2.603-3.375,2.906-4.637l0.122-0.509l-1.987-2.222
						l-2.604-0.792l-0.351,0.167z"/>
				</g>
				<g>
					<path d="M262.207,61.664l-0.013,0.009c-4.053,2.953-7.547,6.447-10.385,10.386c-2.969,4.039-4.354,7.853-4.112,11.328l0.005,0.064l0.013,0.063c0.334,1.669,1.268,3.081,2.775,4.194c1.554,1.04,3.136,1.584,4.739,1.646l0.059,0.002l0.059-0.004
						c1.658-0.132,3.635-1.217,6.043-3.315c0,0,4.372-4.131,5.523-5.22c-0.701,1.416-1.526,3.083-1.526,3.083c-2.225,4.281-5.002,8.474-8.245,12.446c-3.113,3.691-6.426,5.707-9.839,6.012c-1.589-0.354-2.559-1.325-3.02-3.072c-0.196-0.636-0.627-2.029-1.765-2.075
						c-1.088-0.044-1.572,1.162-1.753,1.616l-0.079,0.197l0.008,0.212c0.067,1.809,0.773,3.559,2.101,5.203c1.46,1.657,3.272,2.545,5.413,2.674c4.159-0.182,7.972-2.033,11.439-5.5c3.344-3.343,6.382-7.287,9.032-11.721l6.591-11.807l7.788-13.935l0.019-0.214
						c0.076-0.876-0.089-2.96-3.254-3.384l-0.173-0.023c0,0-0.434,0.093-0.688,0.148c-0.07-0.2-0.158-0.49-0.257-0.96c-0.412-1.649-2.015-2.535-4.772-2.672c-3.623,0.119-7.54,1.673-11.726,4.621z M253.346,83.699c0-2.792,1.671-6.083,4.976-9.793
						c3.608-4.052,7.517-7.288,11.616-9.616c2.198-1.295,4.911-2.48,6.29-1.585c-0.831,1.164-4.609,6.455-4.609,6.455c-2.583,3.705-5.541,7.345-8.798,10.828c-3.03,3.294-5.826,5.068-8.321,5.303c-0.547-0.058-0.696-0.239-0.737-0.313
						c-0.052-0.12-0.306-0.714-0.404-0.944c-0.006-0.111-0.012-0.221-0.012-0.333z"/>
					<path style="fill:none;stroke:#FFFFFF;stroke-width:2;" d="M262.207,61.664l-0.013,0.009c-4.053,2.953-7.547,6.447-10.385,10.386c-2.969,4.039-4.354,7.853-4.112,11.328l0.005,0.064l0.013,0.063c0.334,1.669,1.268,3.081,2.775,4.194
						c1.554,1.04,3.136,1.584,4.739,1.646l0.059,0.002l0.059-0.004c1.658-0.132,3.635-1.217,6.043-3.315c0,0,4.372-4.131,5.523-5.22c-0.701,1.416-1.526,3.083-1.526,3.083c-2.225,4.281-5.002,8.474-8.245,12.446c-3.113,3.691-6.426,5.707-9.839,6.012
						c-1.589-0.354-2.559-1.325-3.02-3.072c-0.196-0.636-0.627-2.029-1.765-2.075c-1.088-0.044-1.572,1.162-1.753,1.616l-0.079,0.197l0.008,0.212c0.067,1.809,0.773,3.559,2.101,5.203c1.46,1.657,3.272,2.545,5.413,2.674c4.159-0.182,7.972-2.033,11.439-5.5
						c3.344-3.343,6.382-7.287,9.032-11.721l6.591-11.807l7.788-13.935l0.019-0.214c0.076-0.876-0.089-2.96-3.254-3.384l-0.173-0.023c0,0-0.434,0.093-0.688,0.148c-0.07-0.2-0.158-0.49-0.257-0.96c-0.412-1.649-2.015-2.535-4.772-2.672
						c-3.623,0.119-7.54,1.673-11.726,4.621z M253.346,83.699c0-2.792,1.671-6.083,4.976-9.793c3.608-4.052,7.517-7.288,11.616-9.616c2.198-1.295,4.911-2.48,6.29-1.585c-0.831,1.164-4.609,6.455-4.609,6.455c-2.583,3.705-5.541,7.345-8.798,10.828
						c-3.03,3.294-5.826,5.068-8.321,5.303c-0.547-0.058-0.696-0.239-0.737-0.313c-0.052-0.12-0.306-0.714-0.404-0.944c-0.006-0.111-0.012-0.221-0.012-0.333z"/>
				</g>
				<g>
					<path d="M305.91,57.418c-3.595,0.181-7.508,1.766-11.631,4.71l-0.008,0.006c-4.052,2.952-7.572,6.443-10.465,10.378c-2.92,4.052-4.274,7.864-4.032,11.336l0.005,0.064l0.013,0.063c0.334,1.669,1.268,3.081,2.775,4.194c1.546,1.096,3.148,1.645,4.777,1.645
						h0.078l0.077-0.012c2.393-0.375,5.026-1.97,8.053-4.874c0,0,1.889-1.8,3.5-3.336c-0.001,0.022-0.007,0.042-0.007,0.064c0,0.809,0.068,1.629,0.207,2.457c0.416,2.025,1.822,3.532,4.188,4.517c2.581,0.753,5.206,0.064,7.908-2.009
						c2.553-1.972,4.935-4.294,7.082-6.904l4.709-5.994c0.775-1.13,1.444-2.358,0.817-3.305l-0.33-0.498l-1.947,0.178l-5.305,6.381c-2.705,3.037-5.465,5.572-8.179,7.511c-1.72,1.252-2.49,1.181-2.742,1.092c-0.416-0.146-0.662-0.736-0.806-1.235
						c-0.002-0.052-0.005-0.103-0.005-0.156c0-1.568,0.785-3.628,2.337-6.132c1.745-2.871,3.565-5.573,5.415-8.038c2.552-3.51,2.955-4.577,3.013-5.208l0.011-0.124l-0.02-0.123c-0.165-1.039-0.887-2.408-3.392-3.034l-0.219-0.055c0,0-0.518,0.104-0.81,0.163
						c-0.075-0.211-0.171-0.513-0.292-1c-0.4-1.598-1.965-2.513-4.651-2.721l-0.063-0.005l-0.063,0.003z M285.423,84.152c0-2.837,1.67-6.124,4.971-9.781c3.615-4.062,7.499-7.328,11.549-9.715c2.216-1.258,4.976-2.394,6.364-1.416
						c-0.834,1.153-4.608,6.373-4.608,6.373c-2.59,3.715-5.547,7.355-8.801,10.834c-3.08,3.291-5.877,5.067-8.321,5.302c-0.547-0.06-0.696-0.24-0.738-0.314c-0.052-0.121-0.305-0.712-0.403-0.942c-0.006-0.114-0.012-0.227-0.012-0.342z"/>
					<path style="fill:none;stroke:#FFFFFF;stroke-width:2;" d="M305.91,57.418c-3.595,0.181-7.508,1.766-11.631,4.71l-0.008,0.006c-4.052,2.952-7.572,6.443-10.465,10.378c-2.92,4.052-4.274,7.864-4.032,11.336l0.005,0.064l0.013,0.063
						c0.334,1.669,1.268,3.081,2.775,4.194c1.546,1.096,3.148,1.645,4.777,1.645h0.078l0.077-0.012c2.393-0.375,5.026-1.97,8.053-4.874c0,0,1.889-1.8,3.5-3.336c-0.001,0.022-0.007,0.042-0.007,0.064c0,0.809,0.068,1.629,0.207,2.457
						c0.416,2.025,1.822,3.532,4.188,4.517c2.581,0.753,5.206,0.064,7.908-2.009c2.553-1.972,4.935-4.294,7.082-6.904l4.709-5.994c0.775-1.13,1.444-2.358,0.817-3.305l-0.33-0.498l-1.947,0.178l-5.305,6.381c-2.705,3.037-5.465,5.572-8.179,7.511
						c-1.72,1.252-2.49,1.181-2.742,1.092c-0.416-0.146-0.662-0.736-0.806-1.235c-0.002-0.052-0.005-0.103-0.005-0.156c0-1.568,0.785-3.628,2.337-6.132c1.745-2.871,3.565-5.573,5.415-8.038c2.552-3.51,2.955-4.577,3.013-5.208l0.011-0.124l-0.02-0.123
						c-0.165-1.039-0.887-2.408-3.392-3.034l-0.219-0.055c0,0-0.518,0.104-0.81,0.163c-0.075-0.211-0.171-0.513-0.292-1c-0.4-1.598-1.965-2.513-4.651-2.721l-0.063-0.005l-0.063,0.003z M285.423,84.152c0-2.837,1.67-6.124,4.971-9.781
						c3.615-4.062,7.499-7.328,11.549-9.715c2.216-1.258,4.976-2.394,6.364-1.416c-0.834,1.153-4.608,6.373-4.608,6.373c-2.59,3.715-5.547,7.355-8.801,10.834c-3.08,3.291-5.877,5.067-8.321,5.302c-0.547-0.06-0.696-0.24-0.738-0.314
						c-0.052-0.121-0.305-0.712-0.403-0.942c-0.006-0.114-0.012-0.227-0.012-0.342z"/>
				</g>
				<g>
					<path d="M334.284,51.922c-2.619,0.277-4.562,2.988-5.938,8.267c-0.145,0.229-4.19,6.653-4.25,6.748c-0.071,0.089-6.282,7.811-6.282,7.811c-0.87,1.031-1.751,2.175-1.751,3.132c0,0.314,0.095,0.607,0.315,0.87c0.001-0.003,0.979,0.485,0.979,0.485
						c0.677,0.033,1.411-0.399,2.455-1.444l5.958-7.246c0,0,3.201-4.027,4.425-5.567c0.9,1.313,1.817,2.016,2.686,2.271c-1.631,2.451-3.136,5.704-4.478,9.779c-0.492,1.492-0.736,2.893-0.736,4.193c0,3.43,1.702,6.158,5.044,8.009l0.111,0.062l0.124,0.032
						c3.826,0.985,8.193-0.367,12.98-4.017c4.671-3.519,8.079-6.815,10.124-9.792l0.103-0.149l0.044-0.176c0.133-0.535,0.444-1.787-0.438-2.367c-0.844-0.553-1.775,0.158-2.08,0.392l-0.107,0.082l-0.081,0.107c-2.093,2.754-4.952,5.442-8.499,7.99
						c-3.438,2.471-6.564,3.833-9.3,4.067c-1.974-0.245-2.838-1.106-2.856-2.86c0.444-3.469,2.226-7.091,5.31-10.768l6.188-7.758l0.057-0.169c0.062-0.186,0.105-0.404,0.105-0.649c0-0.569-0.235-1.284-1.028-2.079c-0.889-0.886-1.966-1.181-3.116-0.854l-0.125,0.036
						l-2.418,1.431c-0.905,0.602-1.864,0.902-2.964,0.959c-0.237-0.042-1.306-0.23-1.306-0.23c-0.13-0.031-0.25-0.145-0.347-0.357c0.453-0.598,1.825-2.408,1.825-2.408c1.341-1.586,2.136-3.228,2.331-4.84c0.012-0.099,0.02-0.207,0.02-0.322
						c0-0.859-0.438-2.095-2.744-2.649l-0.167-0.041l-0.172,0.018z"/>
					<path style="fill:none;stroke:#FFFFFF;stroke-width:2;" d="M334.284,51.922c-2.619,0.277-4.562,2.988-5.938,8.267c-0.145,0.229-4.19,6.653-4.25,6.748c-0.071,0.089-6.282,7.811-6.282,7.811c-0.87,1.031-1.751,2.175-1.751,3.132c0,0.314,0.095,0.607,0.315,0.87
						c0.001-0.003,0.979,0.485,0.979,0.485c0.677,0.033,1.411-0.399,2.455-1.444l5.958-7.246c0,0,3.201-4.027,4.425-5.567c0.9,1.313,1.817,2.016,2.686,2.271c-1.631,2.451-3.136,5.704-4.478,9.779c-0.492,1.492-0.736,2.893-0.736,4.193
						c0,3.43,1.702,6.158,5.044,8.009l0.111,0.062l0.124,0.032c3.826,0.985,8.193-0.367,12.98-4.017c4.671-3.519,8.079-6.815,10.124-9.792l0.103-0.149l0.044-0.176c0.133-0.535,0.444-1.787-0.438-2.367c-0.844-0.553-1.775,0.158-2.08,0.392l-0.107,0.082
						l-0.081,0.107c-2.093,2.754-4.952,5.442-8.499,7.99c-3.438,2.471-6.564,3.833-9.3,4.067c-1.974-0.245-2.838-1.106-2.856-2.86c0.444-3.469,2.226-7.091,5.31-10.768l6.188-7.758l0.057-0.169c0.062-0.186,0.105-0.404,0.105-0.649c0-0.569-0.235-1.284-1.028-2.079
						c-0.889-0.886-1.966-1.181-3.116-0.854l-0.125,0.036l-2.418,1.431c-0.905,0.602-1.864,0.902-2.964,0.959c-0.237-0.042-1.306-0.23-1.306-0.23c-0.13-0.031-0.25-0.145-0.347-0.357c0.453-0.598,1.825-2.408,1.825-2.408c1.341-1.586,2.136-3.228,2.331-4.84
						c0.012-0.099,0.02-0.207,0.02-0.322c0-0.859-0.438-2.095-2.744-2.649l-0.167-0.041l-0.172,0.018z"/>
				</g>
				<g>
					<path d="M393.169,45.218c-1.41,0.47-3.238,2.117-5.752,5.182l-0.001,0.002c-1.99,2.439-4.209,5.573-6.587,9.261c-0.012-0.03-0.093-0.248-0.093-0.248l-0.032-0.059c-0.639-1.19-2.023-1.836-4.233-1.977l-0.057-0.003l-0.057,0.003
						c-3.597,0.181-7.51,1.766-11.633,4.71c-4.112,2.955-7.637,6.45-10.477,10.392c-2.915,4.046-4.271,7.857-4.028,11.328l0.005,0.057l0.01,0.056c0.454,2.449,2.122,5.452,7.483,5.85l0.087,0.007l0.086-0.009c2.535-0.252,5.218-1.795,8.201-4.718
						c0,0,2.186-2.187,4.235-4.236c-0.019,0.16-0.048,0.333-0.048,0.473c0,0.075,0.002,0.148,0.008,0.218c0.185,2.049,0.84,3.954,1.949,5.677c1.253,1.882,3.296,2.661,6.082,2.329l0.057-0.007l0.056-0.013c2.555-0.605,5.641-2.341,9.436-5.306
						c3.736-2.931,6.799-5.762,9.106-8.415c0.489-0.623,0.975-1.389,0.661-2.139c-0.087-0.209-0.373-0.706-1.133-0.792c-0.896-0.086-1.741,0.27-2.527,1.056c-2.828,3.052-5.773,5.742-8.778,8.021c-2.956,2.258-5.47,3.454-7.474,3.556
						c-1.174-0.042-1.837-0.603-2.134-1.875c-0.407-1.525-0.217-3.332,0.561-5.399c1.308-2.94,3.453-6.438,6.354-10.343l8.78-11.164l6.084-7.37l0.031-0.048c0.58-0.894,0.748-1.697,0.499-2.389c-0.154-0.432-0.55-1.013-1.55-1.33l-0.083-0.026l-2.876-0.384
						l-0.22,0.073z M355.868,84.118c0-2.789,1.644-6.051,4.892-9.705c3.558-4.001,7.412-7.239,11.458-9.624c2.288-1.33,5.151-2.584,6.559-1.68c-0.315,0.412-5.726,7.468-5.726,7.468l-8.929,10.374c-2.913,2.907-5.345,4.513-7.194,4.755
						c-0.452-0.061-0.594-0.221-0.642-0.306c-0.05-0.116-0.307-0.715-0.406-0.946c-0.006-0.112-0.012-0.223-0.012-0.336z"/>
					<path style="fill:none;stroke:#FFFFFF;stroke-width:2;" d="M393.169,45.218c-1.41,0.47-3.238,2.117-5.752,5.182l-0.001,0.002c-1.99,2.439-4.209,5.573-6.587,9.261c-0.012-0.03-0.093-0.248-0.093-0.248l-0.032-0.059c-0.639-1.19-2.023-1.836-4.233-1.977
						l-0.057-0.003l-0.057,0.003c-3.597,0.181-7.51,1.766-11.633,4.71c-4.112,2.955-7.637,6.45-10.477,10.392c-2.915,4.046-4.271,7.857-4.028,11.328l0.005,0.057l0.01,0.056c0.454,2.449,2.122,5.452,7.483,5.85l0.087,0.007l0.086-0.009
						c2.535-0.252,5.218-1.795,8.201-4.718c0,0,2.186-2.187,4.235-4.236c-0.019,0.16-0.048,0.333-0.048,0.473c0,0.075,0.002,0.148,0.008,0.218c0.185,2.049,0.84,3.954,1.949,5.677c1.253,1.882,3.296,2.661,6.082,2.329l0.057-0.007l0.056-0.013
						c2.555-0.605,5.641-2.341,9.436-5.306c3.736-2.931,6.799-5.762,9.106-8.415c0.489-0.623,0.975-1.389,0.661-2.139c-0.087-0.209-0.373-0.706-1.133-0.792c-0.896-0.086-1.741,0.27-2.527,1.056c-2.828,3.052-5.773,5.742-8.778,8.021
						c-2.956,2.258-5.47,3.454-7.474,3.556c-1.174-0.042-1.837-0.603-2.134-1.875c-0.407-1.525-0.217-3.332,0.561-5.399c1.308-2.94,3.453-6.438,6.354-10.343l8.78-11.164l6.084-7.37l0.031-0.048c0.58-0.894,0.748-1.697,0.499-2.389
						c-0.154-0.432-0.55-1.013-1.55-1.33l-0.083-0.026l-2.876-0.384l-0.22,0.073z M355.868,84.118c0-2.789,1.644-6.051,4.892-9.705c3.558-4.001,7.412-7.239,11.458-9.624c2.288-1.33,5.151-2.584,6.559-1.68c-0.315,0.412-5.726,7.468-5.726,7.468l-8.929,10.374
						c-2.913,2.907-5.345,4.513-7.194,4.755c-0.452-0.061-0.594-0.221-0.642-0.306c-0.05-0.116-0.307-0.715-0.406-0.946c-0.006-0.112-0.012-0.223-0.012-0.336z"/>
				</g>
				<g>
					<path d="M411.369,59.795c-5.016,0.418-9.889,3.139-14.483,8.087c-4.545,4.894-7.27,9.422-8.101,13.458c-0.632,2.891-0.037,6.768,6.403,8.755c3.654,0.761,7.935-0.554,12.813-3.886l7.129-4.867l5.626-7.12l0.047-0.097c0.466-0.955,1.169-2.396,0.227-3.128
						c-0.941-0.731-2.16,0.303-2.968,0.988l-0.083,0.071l-0.065,0.087c-2.104,2.769-5.354,5.958-9.657,9.479c-4.102,3.41-7.772,4.97-10.924,4.654c-1.642-0.555-2.387-1.462-2.387-2.94c0.044-1.488,0.409-2.795,0.984-3.951c1.539,0.192,3.62-0.178,6.559-1.259
						c3.327-1.226,6.521-3.029,9.494-5.36c3.119-2.384,4.802-5.101,4.992-8.067c-0.097-2.11-1.12-4.562-5.445-4.903l-0.08-0.006l-0.081,0.007z M405.332,67.984c2.472-2.106,4.732-3.309,6.666-3.536c0.5,0.034,0.67,0.136,0.684,0.147
						c0.002,0.008,0.003,0.012,0.003,0.038c0,0.056-0.009,0.155-0.056,0.311c-1.348,3.146-3.964,5.887-7.735,8.043c-3.15,1.73-5.132,2.315-6.427,2.421c0.517-0.753,0.987-1.439,1.037-1.512c0.122-0.124,5.828-5.913,5.828-5.913z"/>
					<path style="fill:none;stroke:#FFFFFF;stroke-width:2;" d="M411.369,59.795c-5.016,0.418-9.889,3.139-14.483,8.087c-4.545,4.894-7.27,9.422-8.101,13.458c-0.632,2.891-0.037,6.768,6.403,8.755c3.654,0.761,7.935-0.554,12.813-3.886l7.129-4.867l5.626-7.12
						l0.047-0.097c0.466-0.955,1.169-2.396,0.227-3.128c-0.941-0.731-2.16,0.303-2.968,0.988l-0.083,0.071l-0.065,0.087c-2.104,2.769-5.354,5.958-9.657,9.479c-4.102,3.41-7.772,4.97-10.924,4.654c-1.642-0.555-2.387-1.462-2.387-2.94
						c0.044-1.488,0.409-2.795,0.984-3.951c1.539,0.192,3.62-0.178,6.559-1.259c3.327-1.226,6.521-3.029,9.494-5.36c3.119-2.384,4.802-5.101,4.992-8.067c-0.097-2.11-1.12-4.562-5.445-4.903l-0.08-0.006l-0.081,0.007z M405.332,67.984
						c2.472-2.106,4.732-3.309,6.666-3.536c0.5,0.034,0.67,0.136,0.684,0.147c0.002,0.008,0.003,0.012,0.003,0.038c0,0.056-0.009,0.155-0.056,0.311c-1.348,3.146-3.964,5.887-7.735,8.043c-3.15,1.73-5.132,2.315-6.427,2.421c0.517-0.753,0.987-1.439,1.037-1.512
						c0.122-0.124,5.828-5.913,5.828-5.913z"/>
				</g>
				<g>
					<path d="M446.563,58.427c-2.198,0.314-5.208,2.062-9.202,5.342l-10.629,9.682c0,0-1.029,1.029-1.828,1.829c0.693-1.318,1.48-2.716,2.416-4.237l4.747-7.337l0.039-0.111c0.188-0.529,0.281-1.018,0.281-1.463c0-0.532-0.134-1.002-0.402-1.406
						c-0.513-0.772-1.459-1.203-2.813-1.282l-0.152-0.009l-0.148,0.037c-0.843,0.211-2.267,1.149-6.438,6.504c-2.938,3.842-6.452,8.014-10.45,12.409c-0.638,0.684-1.202,1.433-0.969,2.22c0.129,0.437,0.476,0.755,0.952,0.875l0.378,0.095l2.358-1.285
						c0,0,2.026-2.118,3.071-3.209c-0.127,0.267-0.492,1.038-0.492,1.038c-1.49,3.159-2.275,5.393-2.399,6.831l-0.019,0.213l0.789,2.269l0.058,0.093c0.613,0.997,1.605,1.603,2.87,1.75l0.297,0.035l0.267-0.133c0.695-0.348,2.134-1.669,7.523-8.833
						c2.929-3.903,6.786-7.937,11.488-12.034c-1.159,1.861-2.376,3.816-2.376,3.816c-2.299,3.656-3.557,7.062-3.735,10.119c-0.005,0.109-0.007,0.218-0.007,0.327c0,1.462,0.423,2.891,1.26,4.266c0.985,1.551,2.688,2.396,5.069,2.527l0.073,0.004l0.074-0.007
						c2.067-0.193,4.467-1.592,7.337-4.277c2.705-2.531,5.159-5.278,7.294-8.163l0.052-0.07l0.039-0.078c0.533-1.067,1.196-2.395,0.285-3.11c-0.869-0.683-1.896,0.186-2.509,0.704l-0.064,0.055l-0.055,0.064c-2.394,2.838-5.13,5.461-8.133,7.796
						c-2.877,2.25-4.083,2.46-4.451,2.328c-0.12-0.474-0.216-0.958-0.216-1.478c0-1.719,0.654-3.684,1.956-5.867c1.895-3.179,4.017-6.149,6.307-8.83c2.413-2.827,3.828-4.716,4.327-5.773l0.036-0.076l0.022-0.081c0.11-0.394,0.166-0.766,0.166-1.113
						c0-0.606-0.168-1.14-0.504-1.594c-0.657-0.888-1.859-1.339-3.677-1.381l-0.082-0.002l-0.082,0.012z"/>
					<path style="fill:none;stroke:#FFFFFF;stroke-width:2;" d="M446.563,58.427c-2.198,0.314-5.208,2.062-9.202,5.342l-10.629,9.682c0,0-1.029,1.029-1.828,1.829c0.693-1.318,1.48-2.716,2.416-4.237l4.747-7.337l0.039-0.111c0.188-0.529,0.281-1.018,0.281-1.463
						c0-0.532-0.134-1.002-0.402-1.406c-0.513-0.772-1.459-1.203-2.813-1.282l-0.152-0.009l-0.148,0.037c-0.843,0.211-2.267,1.149-6.438,6.504c-2.938,3.842-6.452,8.014-10.45,12.409c-0.638,0.684-1.202,1.433-0.969,2.22c0.129,0.437,0.476,0.755,0.952,0.875
						l0.378,0.095l2.358-1.285c0,0,2.026-2.118,3.071-3.209c-0.127,0.267-0.492,1.038-0.492,1.038c-1.49,3.159-2.275,5.393-2.399,6.831l-0.019,0.213l0.789,2.269l0.058,0.093c0.613,0.997,1.605,1.603,2.87,1.75l0.297,0.035l0.267-0.133
						c0.695-0.348,2.134-1.669,7.523-8.833c2.929-3.903,6.786-7.937,11.488-12.034c-1.159,1.861-2.376,3.816-2.376,3.816c-2.299,3.656-3.557,7.062-3.735,10.119c-0.005,0.109-0.007,0.218-0.007,0.327c0,1.462,0.423,2.891,1.26,4.266
						c0.985,1.551,2.688,2.396,5.069,2.527l0.073,0.004l0.074-0.007c2.067-0.193,4.467-1.592,7.337-4.277c2.705-2.531,5.159-5.278,7.294-8.163l0.052-0.07l0.039-0.078c0.533-1.067,1.196-2.395,0.285-3.11c-0.869-0.683-1.896,0.186-2.509,0.704l-0.064,0.055
						l-0.055,0.064c-2.394,2.838-5.13,5.461-8.133,7.796c-2.877,2.25-4.083,2.46-4.451,2.328c-0.12-0.474-0.216-0.958-0.216-1.478c0-1.719,0.654-3.684,1.956-5.867c1.895-3.179,4.017-6.149,6.307-8.83c2.413-2.827,3.828-4.716,4.327-5.773l0.036-0.076l0.022-0.081
						c0.11-0.394,0.166-0.766,0.166-1.113c0-0.606-0.168-1.14-0.504-1.594c-0.657-0.888-1.859-1.339-3.677-1.381l-0.082-0.002l-0.082,0.012z"/>
				</g>
				<g>
					<path d="M475.456,51.753l-0.041,0.001l-0.041,0.005c-0.842,0.098-2.302,0.726-6.156,4.74l-10.573,10.573l-4.684,4.512l-5.85,5.595l-0.041,0.053c-1.074,1.345-0.53,2.287-0.247,2.628c-0.043-0.056,0.918,0.499,0.918,0.499c0.502,0.052,1.073-0.177,1.8-0.697
						c0.859,2.803,1.877,5.058,3.055,6.644c1.563,2.083,3.871,3.137,6.865,3.137c3.137-0.124,5.313-0.727,6.693-1.844c1.305-1.109,2.089-1.542,2.526-1.713c2.037-0.316,4.354-1.063,6.916-2.257l3.96-1.979l5.891-6.783l1.085-3.102l-2.758-0.246l-0.335,0.424
						c-4.282,5.427-8.813,8.592-13.485,9.48c0.464-2.263,2.441-11.905,2.441-11.905c0.662-3.858,1.625-7.007,2.862-9.401c0.14-0.172,1.719-2.127,1.719-2.127c0.748-0.883,1.172-1.911,1.244-3.039l0.006-0.09l-0.011-0.089c-0.231-1.993-1.602-3.093-3.76-3.019z
						 M461.442,69.326c2.815-2.995,5.488-5.567,7.989-7.715c-0.017,0.143-0.058,0.507-0.058,0.507c-0.229,3.275-0.853,7.129-1.86,11.5c-1.104,5-2.269,6.921-3.08,7.656c-2.006,0.995-3.906,0.993-5.803-0.029l-0.01-0.005c-1.881-0.987-2.797-2.613-2.797-4.965
						c0-0.011,0-0.022,0-0.033c0.229-0.649,1.279-2.372,5.618-6.916z"/>
					<path style="fill:none;stroke:#FFFFFF;stroke-width:2;" d="M475.456,51.753l-0.041,0.001l-0.041,0.005c-0.842,0.098-2.302,0.726-6.156,4.74l-10.573,10.573l-4.684,4.512l-5.85,5.595l-0.041,0.053c-1.074,1.345-0.53,2.287-0.247,2.628
						c-0.043-0.056,0.918,0.499,0.918,0.499c0.502,0.052,1.073-0.177,1.8-0.697c0.859,2.803,1.877,5.058,3.055,6.644c1.563,2.083,3.871,3.137,6.865,3.137c3.137-0.124,5.313-0.727,6.693-1.844c1.305-1.109,2.089-1.542,2.526-1.713
						c2.037-0.316,4.354-1.063,6.916-2.257l3.96-1.979l5.891-6.783l1.085-3.102l-2.758-0.246l-0.335,0.424c-4.282,5.427-8.813,8.592-13.485,9.48c0.464-2.263,2.441-11.905,2.441-11.905c0.662-3.858,1.625-7.007,2.862-9.401c0.14-0.172,1.719-2.127,1.719-2.127
						c0.748-0.883,1.172-1.911,1.244-3.039l0.006-0.09l-0.011-0.089c-0.231-1.993-1.602-3.093-3.76-3.019z M461.442,69.326c2.815-2.995,5.488-5.567,7.989-7.715c-0.017,0.143-0.058,0.507-0.058,0.507c-0.229,3.275-0.853,7.129-1.86,11.5
						c-1.104,5-2.269,6.921-3.08,7.656c-2.006,0.995-3.906,0.993-5.803-0.029l-0.01-0.005c-1.881-0.987-2.797-2.613-2.797-4.965c0-0.011,0-0.022,0-0.033c0.229-0.649,1.279-2.372,5.618-6.916z"/>
				</g>
			</g>
			<g>
				<g>
					<path d="M277.283,108.939c-4.175,2.422-7.517,5.82-9.934,10.098c-2.412,4.272-3.635,8.973-3.635,13.972c0,7.515,2.688,14.009,7.991,19.302c5.302,5.292,11.895,7.976,19.595,7.976c7.609,0,14.15-2.696,19.441-8.013c5.29-5.315,7.973-11.877,7.973-19.504
						c0-7.696-2.689-14.271-7.994-19.542c-5.304-5.269-11.976-7.941-19.83-7.941c-4.854,0-9.433,1.229-13.607,3.653z M276.781,147.497c-3.942-3.922-5.941-8.802-5.941-14.504c0-3.863,0.904-7.41,2.688-10.542c1.78-3.128,4.293-5.653,7.469-7.504
						c3.174-1.848,6.577-2.786,10.115-2.786c3.607,0,7.07,0.938,10.293,2.789c3.22,1.851,5.749,4.347,7.519,7.419c1.77,3.075,2.667,6.568,2.667,10.382c0,3.84-0.898,7.376-2.671,10.51c-1.769,3.125-4.267,5.625-7.427,7.428c-3.165,1.806-6.658,2.722-10.381,2.722
						c-5.564,0-10.386-1.99-14.33-5.914z"/>
					<path style="fill:none;stroke:#FFFFFF;stroke-width:2;" d="M277.283,108.939c-4.175,2.422-7.517,5.82-9.934,10.098c-2.412,4.272-3.635,8.973-3.635,13.972c0,7.515,2.688,14.009,7.991,19.302c5.302,5.292,11.895,7.976,19.595,7.976
						c7.609,0,14.15-2.696,19.441-8.013c5.29-5.315,7.973-11.877,7.973-19.504c0-7.696-2.689-14.271-7.994-19.542c-5.304-5.269-11.976-7.941-19.83-7.941c-4.854,0-9.433,1.229-13.607,3.653z M276.781,147.497c-3.942-3.922-5.941-8.802-5.941-14.504
						c0-3.863,0.904-7.41,2.688-10.542c1.78-3.128,4.293-5.653,7.469-7.504c3.174-1.848,6.577-2.786,10.115-2.786c3.607,0,7.07,0.938,10.293,2.789c3.22,1.851,5.749,4.347,7.519,7.419c1.77,3.075,2.667,6.568,2.667,10.382c0,3.84-0.898,7.376-2.671,10.51
						c-1.769,3.125-4.267,5.625-7.427,7.428c-3.165,1.806-6.658,2.722-10.381,2.722c-5.564,0-10.386-1.99-14.33-5.914z"/>
				</g>
				<g>
					<path d="M337.851,120.768c-1.754,0.93-3.404,2.238-4.939,3.872c0-1.919,0-4.978,0-4.978h-6.75v39.375h6.75v-14.693c0-4.816,0.224-8.153,0.664-9.918c0.678-2.606,2.112-4.834,4.259-6.61c2.155-1.786,4.525-2.653,7.245-2.653c2.323,0,4.215,0.558,5.622,1.659
						c1.397,1.092,2.353,2.775,2.841,5.002c0.329,1.382,0.494,4.203,0.494,8.401v18.813h6.75v-20.193c0-5.257-0.534-9.053-1.633-11.603c-1.109-2.572-2.852-4.646-5.178-6.166c-2.329-1.519-5.021-2.288-8.006-2.288c-2.906,0-5.638,0.667-8.119,1.981z"/>
					<path style="fill:none;stroke:#FFFFFF;stroke-width:2;" d="M337.851,120.768c-1.754,0.93-3.404,2.238-4.939,3.872c0-1.919,0-4.978,0-4.978h-6.75v39.375h6.75v-14.693c0-4.816,0.224-8.153,0.664-9.918c0.678-2.606,2.112-4.834,4.259-6.61
						c2.155-1.786,4.525-2.653,7.245-2.653c2.323,0,4.215,0.558,5.622,1.659c1.397,1.092,2.353,2.775,2.841,5.002c0.329,1.382,0.494,4.203,0.494,8.401v18.813h6.75v-20.193c0-5.257-0.534-9.053-1.633-11.603c-1.109-2.572-2.852-4.646-5.178-6.166
						c-2.329-1.519-5.021-2.288-8.006-2.288c-2.906,0-5.638,0.667-8.119,1.981z"/>
				</g>
				<g>
					<path d="M374.227,105.161h-5.75v53.875h6.75v-53.875h-1z"/>
					<path style="fill:none;stroke:#FFFFFF;stroke-width:2;" d="M374.227,105.161h-5.75v53.875h6.75v-53.875h-1z"/>
				</g>
				<g>
					<path d="M382.543,105.757c-0.976,0.976-1.471,2.169-1.471,3.547c0,1.354,0.495,2.536,1.471,3.512c0.976,0.976,2.157,1.471,3.512,1.471c1.378,0,2.571-0.495,3.547-1.471c0.976-0.976,1.471-2.157,1.471-3.512c0-1.378-0.495-2.571-1.471-3.547
						c-0.976-0.976-2.169-1.471-3.547-1.471c-1.354,0-2.536,0.495-3.512,1.471z M388.447,119.661h-5.75v39.375h6.75v-39.375h-1z"/>
					<path style="fill:none;stroke:#FFFFFF;stroke-width:2;" d="M382.543,105.757c-0.976,0.976-1.471,2.169-1.471,3.547c0,1.354,0.495,2.536,1.471,3.512c0.976,0.976,2.157,1.471,3.512,1.471c1.378,0,2.571-0.495,3.547-1.471c0.976-0.976,1.471-2.157,1.471-3.512
						c0-1.378-0.495-2.571-1.471-3.547c-0.976-0.976-2.169-1.471-3.547-1.471c-1.354,0-2.536,0.495-3.512,1.471z M388.447,119.661h-5.75v39.375h6.75v-39.375h-1z"/>
				</g>
				<g>
					<path d="M408.982,120.768c-1.754,0.93-3.404,2.238-4.939,3.872c0-1.919,0-4.978,0-4.978h-6.75v39.375h6.75v-14.693c0-4.816,0.224-8.153,0.664-9.918c0.678-2.606,2.112-4.834,4.259-6.61c2.155-1.786,4.525-2.653,7.245-2.653c2.323,0,4.215,0.558,5.622,1.659
						c1.397,1.092,2.353,2.775,2.841,5.002c0.329,1.382,0.494,4.203,0.494,8.401v18.813h6.75v-20.193c0-5.257-0.534-9.053-1.633-11.603c-1.109-2.572-2.852-4.646-5.178-6.166c-2.329-1.519-5.021-2.288-8.006-2.288c-2.906,0-5.638,0.667-8.119,1.981z"/>
					<path style="fill:none;stroke:#FFFFFF;stroke-width:2;" d="M408.982,120.768c-1.754,0.93-3.404,2.238-4.939,3.872c0-1.919,0-4.978,0-4.978h-6.75v39.375h6.75v-14.693c0-4.816,0.224-8.153,0.664-9.918c0.678-2.606,2.112-4.834,4.259-6.61
						c2.155-1.786,4.525-2.653,7.245-2.653c2.323,0,4.215,0.558,5.622,1.659c1.397,1.092,2.353,2.775,2.841,5.002c0.329,1.382,0.494,4.203,0.494,8.401v18.813h6.75v-20.193c0-5.257-0.534-9.053-1.633-11.603c-1.109-2.572-2.852-4.646-5.178-6.166
						c-2.329-1.519-5.021-2.288-8.006-2.288c-2.906,0-5.638,0.667-8.119,1.981z"/>
				</g>
				<g>
					<path d="M443.086,126.211c-3.054,3.857-4.603,8.312-4.603,13.241c0,5.241,1.825,10,5.425,14.147c3.635,4.188,8.722,6.312,15.12,6.312c2.867,0,5.482-0.439,7.775-1.305c2.295-0.869,4.39-2.153,6.225-3.815c1.828-1.657,3.458-3.857,4.844-6.54l0.455-0.882
						l-5.764-3.029l-0.488,0.8c-1.42,2.327-2.74,4.02-3.924,5.033c-1.175,1.005-2.628,1.825-4.318,2.437c-1.695,0.615-3.465,0.927-5.26,0.927c-3.731,0-6.775-1.255-9.305-3.838c-2.288-2.332-3.531-5.346-3.807-8.912c2.065,0,33.78,0,33.78,0l-0.009-1.009
						c-0.049-5.305-1.517-9.806-4.362-13.376c-4.003-5.052-9.426-7.615-16.116-7.615c-6.508,0-11.779,2.498-15.669,7.425z M449.912,128.694l0.001-0.001c2.498-2.208,5.407-3.282,8.895-3.282c2.089,0,4.11,0.442,6.008,1.315c1.886,0.867,3.42,2.02,4.559,3.426
						c0.924,1.142,1.633,2.711,2.211,4.509c-2.394,0-22.942,0-25.343,0c0.912-2.582,2.131-4.609,3.67-5.967z"/>
					<path style="fill:none;stroke:#FFFFFF;stroke-width:2;" d="M443.086,126.211c-3.054,3.857-4.603,8.312-4.603,13.241c0,5.241,1.825,10,5.425,14.147c3.635,4.188,8.722,6.312,15.12,6.312c2.867,0,5.482-0.439,7.775-1.305c2.295-0.869,4.39-2.153,6.225-3.815
						c1.828-1.657,3.458-3.857,4.844-6.54l0.455-0.882l-5.764-3.029l-0.488,0.8c-1.42,2.327-2.74,4.02-3.924,5.033c-1.175,1.005-2.628,1.825-4.318,2.437c-1.695,0.615-3.465,0.927-5.26,0.927c-3.731,0-6.775-1.255-9.305-3.838c-2.288-2.332-3.531-5.346-3.807-8.912
						c2.065,0,33.78,0,33.78,0l-0.009-1.009c-0.049-5.305-1.517-9.806-4.362-13.376c-4.003-5.052-9.426-7.615-16.116-7.615c-6.508,0-11.779,2.498-15.669,7.425z M449.912,128.694l0.001-0.001c2.498-2.208,5.407-3.282,8.895-3.282c2.089,0,4.11,0.442,6.008,1.315
						c1.886,0.867,3.42,2.02,4.559,3.426c0.924,1.142,1.633,2.711,2.211,4.509c-2.394,0-22.942,0-25.343,0c0.912-2.582,2.131-4.609,3.67-5.967z"/>
				</g>
			</g>
		</g>
	</g>
</svg>
